<?xml version="1.0" encoding="utf-8"?>
<!-- Uploaded to: SVG Repo, www.svgrepo.com, Generator: SVG Repo Mixer Tools -->
<svg width="800px" height="800px" viewBox="0 0 1024 1024" class="icon"  version="1.1" xmlns="http://www.w3.org/2000/svg"><path d="M507.136 790.6816a21.34016 21.34016 0 0 1-36.4032 15.104 21.4528 21.4528 0 0 1-6.2464-15.104c0-5.632 2.2528-11.0592 6.2464-15.0528 3.84-3.8912 9.1648-6.2464 15.0528-6.2464 5.6832 0 11.1104 2.2528 15.0528 6.2464 3.8912 3.8912 6.2976 9.1648 6.2976 15.0528zM597.8624 505.344c3.584 3.6352 5.7856 8.5504 5.7856 14.0288 0 10.9568-8.8576 19.8656-19.8144 19.8656-5.2736 0-10.2912-2.0992-14.0288-5.8368-3.584-3.584-5.7856-8.5504-5.7856-14.0288a19.77344 19.77344 0 0 1 19.8144-19.8144c5.2224 0 10.2912 2.0992 14.0288 5.7856zM291.6352 451.584c5.12 5.0688 8.2432 12.0832 8.2432 19.8656 0 15.5136-12.5952 28.1088-28.1088 28.1088a27.5456 27.5456 0 0 1-19.8656-8.2432 27.8016 27.8016 0 0 1-8.2432-19.8656 27.5456 27.5456 0 0 1 8.2432-19.8656c5.0688-5.12 12.0832-8.2944 19.8656-8.2944s14.7968 3.1744 19.8656 8.2944zM468.1216 540.7744a45.1072 45.1072 0 0 1 13.312 32.0512c0 25.0368-20.3264 45.312-45.3632 45.312-12.4928 0-23.8592-5.0688-32.1024-13.2608a45.24032 45.24032 0 0 1-13.2608-32.0512c-0.0512-12.032 4.7616-23.6032 13.2608-32.0512a45.28128 45.28128 0 0 1 32.1024-13.312c12.032 0 23.552 4.7616 32.0512 13.312zM328.1408 659.712a32.85504 32.85504 0 0 1 9.728 23.3472c0 18.2784-14.7968 33.024-33.024 33.024-9.1648 0-17.408-3.6352-23.3984-9.6256a32.9216 32.9216 0 0 1-9.6768-23.3984 33.0496 33.0496 0 0 1 33.0752-33.024c8.7552 0 17.152 3.4816 23.296 9.6768z" fill="#4F46A3" /><path d="M857.3952 495.4624v227.0208c0 44.0832-35.84 79.9232-79.9232 79.9232h-90.5216v-35.1744h43.52c50.5856 0 91.7504-41.1648 91.7504-91.7504v-123.2384c0-50.5856-41.1648-91.7504-91.7504-91.7504h-43.52v-44.9536h90.5216c44.0832 0 79.9232 35.8912 79.9232 79.9232z" fill="#FF4893" /><path d="M664.576 393.1648h0.6144c-0.2048 0.3584-0.4096 0.7168-0.6144 1.024v-1.024z" fill="#4F46A3" /><path d="M657.2544 301.4144c-2.304 1.536-4.352 3.584-5.8368 5.9904-2.56 1.1776-4.8128 2.816-6.7072 4.864 2.56-5.0688 7.0656-9.0112 12.544-10.8544z" fill="#5FCEFF" /><path d="M642.2016 744.8576v79.6672c-0.4608 43.5712-36.3008 79.0528-79.9232 79.0528H295.936c-44.0832 0-79.9232-35.84-79.9232-79.9232V351.232H315.392c8.2944 27.904 31.6928 49.3056 60.672 54.784-2.048 3.6352-3.2256 7.7824-3.2256 12.2368 0 6.912 2.816 13.1584 7.3728 17.7152a25.0368 25.0368 0 0 0 42.752-17.7152c0-5.888-2.048-11.3152-5.4784-15.5648 9.4208-3.4304 18.0224-8.6016 25.3952-15.1552 21.5552 40.2944 64.1024 67.84 112.6912 67.84 33.3824 0 63.8464-12.9024 86.6304-33.9456v323.4304z m-38.5536-225.4848c0-5.4784-2.2016-10.3936-5.7856-14.0288a20.06016 20.06016 0 0 0-14.0288-5.7856 19.77344 19.77344 0 0 0-19.8144 19.8144c0 5.4784 2.2016 10.4448 5.7856 14.0288 3.7376 3.7376 8.7552 5.8368 14.0288 5.8368 10.9568 0 19.8144-8.9088 19.8144-19.8656z m-102.7584 286.3616c3.9936-3.9936 6.2464-9.4208 6.2464-15.0528 0-5.888-2.4064-11.1616-6.2976-15.0528a21.1456 21.1456 0 0 0-15.0528-6.2464c-5.888 0-11.2128 2.3552-15.0528 6.2464-3.9936 3.9936-6.2464 9.4208-6.2464 15.0528 0 5.888 2.4064 11.2128 6.2464 15.104a21.34016 21.34016 0 0 0 30.1568-0.0512z m-19.456-232.9088c0-12.544-5.12-23.9104-13.312-32.0512a45.1328 45.1328 0 0 0-32.0512-13.312c-12.4928 0-23.8592 5.0688-32.1024 13.312a44.99456 44.99456 0 0 0-13.2608 32.0512c0 12.4928 5.0688 23.8592 13.2608 32.0512a45.45024 45.45024 0 0 0 32.1024 13.2608c25.0368 0 45.3632-20.2752 45.3632-45.312z m-143.5648 110.2336c0-8.7552-3.4816-17.152-9.728-23.3472a32.80896 32.80896 0 0 0-23.296-9.6768 33.0496 33.0496 0 0 0-23.3984 56.4224 32.87552 32.87552 0 0 0 23.3984 9.6256c18.2272 0 33.024-14.7456 33.024-33.024z m-37.9904-211.6096c0-7.7824-3.1232-14.7968-8.2432-19.8656-5.0688-5.12-12.0832-8.2944-19.8656-8.2944s-14.7968 3.1744-19.8656 8.2944a27.5456 27.5456 0 0 0-8.2432 19.8656c0 7.7824 3.1232 14.7968 8.2432 19.8656a27.5456 27.5456 0 0 0 19.8656 8.2432c15.5136 0 28.1088-12.5952 28.1088-28.1088z" fill="#FFB578" /><path d="M571.0848 253.952c12.3392 0 22.3744-9.984 22.3744-22.3744 0-13.9776 11.3152-25.2928 25.2928-25.2928a25.2928 25.2928 0 0 1 25.1392 22.272c0.1024 1.024 0.2048 1.9968 0.2048 3.0208 0 12.3392 9.984 22.3744 22.3744 22.3744 4.9664 0 9.5744-1.6384 13.2608-4.4032 8.9088 3.7376 15.2064 12.5952 15.2064 22.8864 0 6.6048-2.6112 12.9536-7.2704 17.6128-4.7104 4.6592-10.9568 7.2704-17.6128 7.2704-4.7616 0-9.1648 1.4848-12.8 4.096a21.90848 21.90848 0 0 0-12.544 10.8544c-3.7888 3.9936-6.0928 9.4208-6.0928 15.3088 0 45.7728-37.2736 83.0464-83.0464 83.0464-45.2608 0-82.5344-36.8128-83.0464-81.8176v-1.2288a22.39488 22.39488 0 0 0-31.9488-20.224 22.36416 22.36416 0 0 0-16.0256 21.4528c0 18.688-15.2064 33.8432-33.8432 33.8432a33.8432 33.8432 0 0 1-33.8432-33.8432c0-12.3392-10.0352-22.3744-22.3744-22.3744H193.6384c-1.6384 0-3.2768 0.2048-4.864 0.5632-0.6656-0.0512-1.3824-0.1024-2.048-0.1024-13.7216 0-24.8832-11.1616-24.8832-24.8832 0-6.6048 2.6624-12.9536 7.3216-17.6128s10.9568-7.2704 17.5616-7.2192c11.1616 0 20.4288-8.192 22.0672-18.944 0.0512-0.0512 0.0512-0.1024 0.0512-0.1536 0.6144-2.048 0.9728-4.2496 0.9728-6.5024 0-18.6368 15.1552-33.8432 33.8432-33.8432 9.3184 0 17.7664 3.7888 23.9104 9.9328 6.144 6.144 9.9328 14.592 9.9328 23.9104 0 12.3392 10.0352 22.3744 22.3744 22.3744 6.1952 0 11.776-2.5088 15.8208-6.5536 4.096-3.9936 6.6048-9.6256 6.6048-15.8208 0-60.4672 49.2032-109.6704 109.6704-109.6704s109.6704 49.2032 109.6704 109.6704c0 12.3392 9.984 22.3744 22.3744 22.3744 1.2288 0 2.4064-0.1024 3.5328-0.3072 1.1264 0.2048 2.304 0.3072 3.5328 0.3072z" fill="#5FCEFF" /><path d="M193.6384 350.5152v0.7168c-0.768 0-1.4848-0.0512-2.2016-0.1024 0.768-0.1536 1.4848-0.3584 2.2016-0.6144zM188.7744 306.9952h0.1536a22.3744 22.3744 0 0 0-16.64 15.2576 22.25664 22.25664 0 0 1 16.4864-15.2576z" fill="#4F46A3" /><path d="M777.472 370.7904h-90.5216v-30.7712c12.1344-3.0208 23.3472-9.3184 32.3584-18.3296 13.1072-13.056 20.4288-30.7712 20.3776-49.2544 0-19.2-7.8336-36.608-20.4288-49.2032a69.51936 69.51936 0 0 0-36.0448-19.1488 70.06208 70.06208 0 0 0-64.4608-42.5984c-16.0256 0-30.8736 5.4272-42.7008 14.5408-22.3744-57.8048-78.4896-98.8672-144.0768-98.8672-62.8224 0-116.992 37.6832-141.056 91.648a78.208 78.208 0 0 0-47.2576-15.8208c-21.6576 0-41.3184 8.8064-55.552 23.04a78.75584 78.75584 0 0 0-21.3504 39.2704c-10.9568 3.2256-20.992 9.216-29.2352 17.5104-13.1072 13.0048-20.48 30.72-20.4288 49.2032 0 33.0752 23.1936 60.8768 54.1696 67.8912v473.7536c0 68.7616 55.9104 124.672 124.672 124.672h266.3424c60.416 0 111.2576-43.6224 122.368-101.1712h92.8256c68.7616 0 124.672-55.9104 124.672-124.672V495.4624c0-68.7104-55.9104-124.672-124.672-124.672zM193.6384 351.232c-0.768 0-1.4848-0.0512-2.2016-0.1024 0.768-0.1536 1.4848-0.3584 2.2016-0.6144v0.7168z m448.5632 131.6352v341.6576c-0.4608 43.5712-36.3008 79.0528-79.9232 79.0528H295.936c-44.0832 0-79.9232-35.84-79.9232-79.9232V351.232H315.392c8.2944 27.904 31.6928 49.3056 60.672 54.784-2.048 3.6352-3.2256 7.7824-3.2256 12.2368 0 6.912 2.816 13.1584 7.3728 17.7152a25.0368 25.0368 0 0 0 42.752-17.7152c0-5.888-2.048-11.3152-5.4784-15.5648 9.4208-3.4304 18.0224-8.6016 25.3952-15.1552 21.5552 40.2944 64.1024 67.84 112.6912 67.84 33.3824 0 63.8464-12.9024 86.6304-33.9456v61.44z m27.8528-185.5488c-4.7616 0-9.1648 1.4848-12.8 4.096-2.304 1.536-4.352 3.584-5.8368 5.9904-2.56 1.1776-4.8128 2.816-6.7072 4.864-3.7888 3.9936-6.0928 9.4208-6.0928 15.3088 0 45.7728-37.2736 83.0464-83.0464 83.0464-45.2608 0-82.5344-36.8128-83.0464-81.8176v-1.2288a22.39488 22.39488 0 0 0-31.9488-20.224 22.36416 22.36416 0 0 0-16.0256 21.4528c0 18.688-15.2064 33.8432-33.8432 33.8432a33.8432 33.8432 0 0 1-33.8432-33.8432c0-12.3392-10.0352-22.3744-22.3744-22.3744H193.6384c-1.6384 0-3.2768 0.2048-4.864 0.5632h0.1536a22.3744 22.3744 0 0 0-16.64 15.2576 22.25664 22.25664 0 0 1 16.4864-15.2576c-0.6656-0.0512-1.3824-0.1024-2.048-0.1024-13.7216 0-24.8832-11.1616-24.8832-24.8832 0-6.6048 2.6624-12.9536 7.3216-17.6128 4.6592-4.6592 10.9568-7.2704 17.5616-7.2192 11.1616 0 20.4288-8.192 22.0672-18.944 0.0512-0.0512 0.0512-0.1024 0.0512-0.1536 0.6144-2.048 0.9728-4.2496 0.9728-6.5024 0-18.6368 15.1552-33.8432 33.8432-33.8432 9.3184 0 17.7664 3.7888 23.9104 9.9328s9.9328 14.592 9.9328 23.9104c0 12.3392 10.0352 22.3744 22.3744 22.3744 6.1952 0 11.776-2.5088 15.8208-6.5536 4.096-3.9936 6.6048-9.6256 6.6048-15.8208 0-60.4672 49.2032-109.6704 109.6704-109.6704s109.6704 49.2032 109.6704 109.6704c0 12.3392 9.984 22.3744 22.3744 22.3744 1.2288 0 2.4064-0.1024 3.5328-0.3072 1.1264 0.2048 2.304 0.3072 3.5328 0.3072 12.3392 0 22.3744-9.984 22.3744-22.3744 0-13.9776 11.3152-25.2928 25.2928-25.2928a25.2928 25.2928 0 0 1 25.1392 22.272c0.1024 1.024 0.2048 1.9968 0.2048 3.0208 0 12.3392 9.984 22.3744 22.3744 22.3744 4.9664 0 9.5744-1.6384 13.2608-4.4032 8.9088 3.7376 15.2064 12.5952 15.2064 22.8864 0 6.6048-2.6112 12.9536-7.2704 17.6128-4.7104 4.6592-10.9568 7.2704-17.6128 7.2704z m16.896 207.9232h43.52c25.9072 0 47.0016 21.0944 47.0016 47.0016v123.2384c0 25.9072-21.0944 47.0016-47.0016 47.0016h-43.52V505.2416z m170.4448 217.2416c0 44.0832-35.84 79.9232-79.9232 79.9232h-90.5216v-35.1744h43.52c50.5856 0 91.7504-41.1648 91.7504-91.7504v-123.2384c0-50.5856-41.1648-91.7504-91.7504-91.7504h-43.52v-44.9536h90.5216c44.0832 0 79.9232 35.8912 79.9232 79.9232v227.0208z" fill="#4F46A3" /></svg>